# xmcd
#
# Track frame offsets: 
#        150
#        9492
#        20989
#        30665
#        41790
#        45935
#        56029
#        68676
#        82138
#        94022
#        102949
#        104691
#        118268
#        135802
#        149957
#        162151
#        173736
#        185352
#        195512
#        210350
#        215661
#        224662
#        238047
#        249489
#        259854
#        270659
#        281847
#        290906
#
# Disc length: 4027 seconds
#
# Revision: 0
# Processed by: cddbd v1.5.2PL0 Copyright (c) Steve Scherf et al.
# Submitted via: ExactAudioCopy v0.95b3
#
DISCID=b50fb91c
DTITLE=The Beatles  - The Beatles At The BEEB Vol.3
DYEAR=1900
DGENRE=
TTITLE0=Some Other Guy - Easy Beat #2, June 23, 1963
TTITLE1=A Taste Of Honey - Easy Beat #2, June 23, 1963
TTITLE2=Thank You Girl - Easy Beat #2, June 23, 1963
TTITLE3=From Me To You - Easy Beat #2, June 23, 1963
TTITLE4=Side By Side Theme (duet with The Karl Denver Trio) - Side By 
TTITLE4=Side #3, June 24, 1963
TTITLE5=Too Much Monkey Business - Side By Side #3, June 24, 1963
TTITLE6=Boys - Side By Side #3, June 24, 1963
TTITLE7=When Days Are Gone (The Karl Denver Trio) - Side By Side #3, J
TTITLE7=une 24, 1963
TTITLE8=I'll Be On My Way - Side By Side #3, June 24, 1963
TTITLE9=From Me To You - Side By Side #3, June 24, 1963
TTITLE10=Pop Go The Beatles - Intro Theme - Pop Go The Beatles #04, Ju
TTITLE10=ne 25, 1963
TTITLE11=I Saw Her Standing There - Pop Go The Beatles #04, June 25, 1
TTITLE11=963
TTITLE12=Anna (Go To Him) - Pop Go The Beatles #04, June 25, 1963
TTITLE13=Boys - Pop Go The Beatles #04, June 25, 1963
TTITLE14=Chains - Pop Go The Beatles #04, June 25, 1963
TTITLE15=Far Away Places (The Bachelors) - Pop Go The Beatles #04, Jun
TTITLE15=e 25, 1963
TTITLE16=Jailer, Bring Me Water (The Bachelors) - Pop Go The Beatles #
TTITLE16=04, June 25, 1963
TTITLE17=P.S. I Love You - Pop Go The Beatles #04, June 25, 1963
TTITLE18=Twist And Shout - Pop Go The Beatles #04, June 25, 1963
TTITLE19=Pop Go The Beatles - Outro Theme - Pop Go The Beatles #04, Ju
TTITLE19=ne 25, 1963
TTITLE20=I Got To Find My Baby - Saturday Club #4, June 29, 1963
TTITLE21=Memphis, Tennessee - Saturday Club #4, June 29, 1963
TTITLE22=Money (That's What I Want) - Saturday Club #4, June 29, 1963
TTITLE23=Till There Was You - Saturday Club #4, June 29, 1963
TTITLE24=From Me To You - Saturday Club #4, June 29, 1963
TTITLE25=Roll Over Beethoven - Saturday Club #4, June 29, 1963
TTITLE26=A Taste Of Honey - The Beat Show, July 4, 1963
TTITLE27=Twist And Shout - The Beat Show, July 4, 1963
EXTD=
EXTT0=
EXTT1=
EXTT2=
EXTT3=
EXTT4=
EXTT5=
EXTT6=
EXTT7=
EXTT8=
EXTT9=
EXTT10=
EXTT11=
EXTT12=
EXTT13=
EXTT14=
EXTT15=
EXTT16=
EXTT17=
EXTT18=
EXTT19=
EXTT20=
EXTT21=
EXTT22=
EXTT23=
EXTT24=
EXTT25=
EXTT26=
EXTT27=
PLAYORDER=
